<?xml version="1.0" encoding="utf-8"?>
<!-- Generator: Adobe Illustrator 25.3.1, SVG Export Plug-In . SVG Version: 6.00 Build 0)  -->
<svg version="1.1"
	 id="svg2" inkscape:version="0.92.4 (5da689c313, 2019-01-14)" sodipodi:docname="RAE Logo_Black_RGB.svg" xmlns:cc="http://creativecommons.org/ns#" xmlns:dc="http://purl.org/dc/elements/1.1/" xmlns:inkscape="http://www.inkscape.org/namespaces/inkscape" xmlns:rdf="http://www.w3.org/1999/02/22-rdf-syntax-ns#" xmlns:sodipodi="http://sodipodi.sourceforge.net/DTD/sodipodi-0.dtd" xmlns:svg="http://www.w3.org/2000/svg"
	 xmlns="http://www.w3.org/2000/svg" xmlns:xlink="http://www.w3.org/1999/xlink" x="0px" y="0px" viewBox="0 0 1175.9 360.5"
	 style="enable-background:new 0 0 1175.9 360.5;" xml:space="preserve">
<style type="text/css">
	.st0{fill:#FFFFFF;}
	.st1{clip-path:url(#SVGID_2_);}
</style>
<g id="g10" transform="matrix(1.3333333,0,0,-1.3333333,0,360.492)" inkscape:groupmode="layer" inkscape:label="RAE Logo_Black_RGB">
	<g id="g12" transform="translate(129.3384,249.3605)">
		<path id="path14" inkscape:connector-curvature="0" class="st0" d="M0,0l-2.4-2.8l8.1-3.6L0,0z"/>
	</g>
	<g id="g16" transform="translate(129.3381,240.3306)">
		<path id="path18" inkscape:connector-curvature="0" class="st0" d="M0,0l0.4-0.2L0.1,0.2L0,0z"/>
	</g>
	<g id="g20" transform="translate(63.5605,27.9074)">
		<path id="path22" inkscape:connector-curvature="0" class="st0" d="M0,0l3.7-7.7H26L29.6,0L6.3,10.2L0,0z"/>
	</g>
	<g id="g24" transform="translate(55.5488,44.8371)">
		<path id="path26" inkscape:connector-curvature="0" class="st0" d="M0,0l4.2-8.9l9.5,15.2l36.4-16.5l-6.5-14.5h9.1L61-6L10.6,16.9
			L0,0z"/>
	</g>
	<g id="g28" transform="translate(48.3208,60.1145)">
		<path id="path30" inkscape:connector-curvature="0" class="st0" d="M0,0l3.7-7.9l16.8,24.2l58.1-27.7L66.2-39.9h8.3l14,32.2
			L18,25.9L0,0z"/>
	</g>
	<g id="g32" transform="translate(41.4409,74.6574)">
		<path id="path34" inkscape:connector-curvature="0" class="st0" d="M0,0l3.4-7.1l23.8,31.9L106.6-12L87.2-54.5h7.6l21,45.9
			L25,33.4L0,0z"/>
	</g>
	<g id="g36" transform="translate(34.4209,89.4992)">
		<path id="path38" inkscape:connector-curvature="0" class="st0" d="M0,0l3-6.3L33.9,33l100.9-45.8l-26.6-56.4h6.9l28.1,59.5
			L32,40.7L0,0z"/>
	</g>
	<g id="g40" transform="translate(27.3105,104.5256)">
		<path id="path42" inkscape:connector-curvature="0" class="st0" d="M0,0l2.6-5.6l38.1,46.5L163-14l-34-70.4h6.2l35.3,73.1L39,47.7
			L0,0z"/>
	</g>
	<g id="g44" transform="translate(20.1426,119.6779)">
		<path id="path46" inkscape:connector-curvature="0" class="st0" d="M0,0l-0.1,0.3L0,0l2.3-4.9l45.4,53.6l143.8-63.9l-41.3-84.3
			h5.5l42.5,86.8L46.3,54.7L0,0z"/>
	</g>
	<g id="g48" transform="translate(92.335,205.4724)">
		<path id="path50" inkscape:connector-curvature="0" class="st0" d="M0,0l120.5-54.4l-5.4,6.4L2.4,2.8L0,0z"/>
	</g>
	<g id="g52" transform="translate(104.8003,220.1325)">
		<path id="path54" inkscape:connector-curvature="0" class="st0" d="M0,0l79.6-35.7l-5.4,6.4L2.4,2.8L0,0z"/>
	</g>
	<g id="g56" transform="translate(117.1704,234.9948)">
		<path id="path58" inkscape:connector-curvature="0" class="st0" d="M0,0l39.5-17.7l-5.4,6.4L2.4,2.8L0,0z"/>
	</g>
	<g id="g60" transform="translate(78.0591,188.5979)">
		<path id="path62" inkscape:connector-curvature="0" class="st0" d="M0,0l155.3-70.8l-48.5-97.6h4.9l32.2,65L161-68.6l0,0L2.9,3.4
			L0,0z"/>
	</g>
	<g id="g64">
		<g>
			<g>
				<defs>
					<rect id="SVGID_1_" x="-343" y="-105.2" width="1567.9" height="480.7"/>
				</defs>
				<clipPath id="SVGID_2_">
					<use xlink:href="#SVGID_1_"  style="overflow:visible;"/>
				</clipPath>
				<g id="g66" class="st1">
					<g id="g72" transform="translate(289.1221,162.57)">
						<path id="path74" inkscape:connector-curvature="0" class="st0" d="M0,0h-11.5v-21.1H0c8.6,0,13.1,3.9,13.1,10.6S8.6,0,0,0
							 M13.3-44.5L2.5-29.1c-0.7-0.1-1.4-0.1-2-0.1h-11.9v-15.4h-9.8V8.3H0.5C14.4,8.3,23,1.2,23-10.5c0-8-4.1-13.9-11.2-16.7
							L24-44.6L13.3-44.5L13.3-44.5z"/>
					</g>
					<g id="g76" transform="translate(352.2173,138.1936)">
						<path id="path78" inkscape:connector-curvature="0" class="st0" d="M0,0c0,7.7-5.1,12.6-12,12.6c-6.8,0-11.9-4.9-11.9-12.6
							s5.1-12.6,11.9-12.6C-5.1-12.6,0-7.7,0,0 M-33.4,0c0,12.1,9.1,20.6,21.4,20.6C0.5,20.6,9.5,12.1,9.5,0S0.5-20.7-12-20.7
							C-24.4-20.7-33.4-12.1-33.4,0"/>
					</g>
					<g id="g80" transform="translate(407.3906,158.3439)">
						<path id="path82" inkscape:connector-curvature="0" class="st0" d="M0,0l-18.9-43.5c-3.7-9.1-8.8-11.9-15.5-11.9
							c-4,0-8.2,1.4-10.8,3.7l3.8,6.9c1.8-1.7,4.4-2.8,6.9-2.8c3.3,0,5.3,1.6,7.1,5.6l0.7,1.6L-44.3,0h9.8l12.7-29.8L-9.1,0H0z"/>
					</g>
					<g id="g84" transform="translate(437.5815,130.6467)">
						<path id="path86" inkscape:connector-curvature="0" class="st0" d="M0,0v4.7h-9.7c-6.4,0-8.2-2.4-8.2-5.4
							c0-3.4,2.9-5.6,7.7-5.6C-5.6-6.3-1.6-4.1,0,0 M9.4,11v-23.6H0.5v4.9c-2.3-3.5-6.6-5.4-12.7-5.4c-9.2,0-15,5.1-15,12.1
							c0,6.7,4.5,12,16.8,12H0v0.6c0,5.5-3.3,8.8-10,8.8c-4.5,0-9.2-1.5-12.2-4l-3.7,6.9c4.3,3.3,10.6,5,17.1,5
							C2.7,28.2,9.4,22.6,9.4,11"/>
					</g>
					<path id="path88" inkscape:connector-curvature="0" class="st0" d="M457.8,174h9.4v-56h-9.4V174z"/>
					<g id="g90" transform="translate(532.376,137.9675)">
						<path id="path92" inkscape:connector-curvature="0" class="st0" d="M0,0l-10,23.1L-19.8,0H0z M3.2-7.7h-26.4l-5.2-12.2h-10.1
							l23.8,52.8H-5l23.8-52.8H8.5L3.2-7.7z"/>
					</g>
					<g id="g94" transform="translate(553.6621,138.1936)">
						<path id="path96" inkscape:connector-curvature="0" class="st0" d="M0,0c0,12.1,9.1,20.6,21.8,20.6c7.8,0,14.1-3.2,17.2-9.4
							L31.8,7c-2.4,3.8-6,5.6-10,5.6c-7,0-12.3-4.8-12.3-12.6s5.3-12.6,12.2-12.6c4,0,7.6,1.7,10,5.6l7.2-4.2
							c-3.1-6-9.4-9.4-17.2-9.4C9.1-20.7,0-12.1,0,0"/>
					</g>
					<g id="g98" transform="translate(625.1338,130.6467)">
						<path id="path100" inkscape:connector-curvature="0" class="st0" d="M0,0v4.7h-9.7c-6.4,0-8.2-2.4-8.2-5.4
							c0-3.4,2.9-5.6,7.7-5.6C-5.6-6.3-1.6-4.1,0,0 M9.4,11v-23.6H0.5v4.9c-2.3-3.5-6.6-5.4-12.7-5.4c-9.2,0-15,5.1-15,12.1
							c0,6.7,4.5,12,16.8,12H0v0.6c0,5.5-3.3,8.8-10,8.8c-4.5,0-9.2-1.5-12.2-4l-3.7,6.9c4.3,3.3,10.6,5,17.1,5
							C2.7,28.2,9.4,22.6,9.4,11"/>
					</g>
					<g id="g102" transform="translate(676.833,138.1936)">
						<path id="path104" inkscape:connector-curvature="0" class="st0" d="M0,0c0,7.7-5.2,12.6-12,12.6S-24,7.7-24,0
							s5.2-12.6,12-12.6S0-7.7,0,0 M9.3,35.8v-56H0.2v5.2c-3.2-3.8-7.8-5.7-13.4-5.7c-11.7,0-20.4,8.2-20.4,20.7s8.7,20.6,20.4,20.6
							c5.2,0,9.8-1.7,13-5.4v20.7h9.5V35.8z"/>
					</g>
					<g id="g106" transform="translate(704.5352,141.4392)">
						<path id="path108" inkscape:connector-curvature="0" class="st0" d="M0,0h22.9c-0.8,5.8-5.2,9.8-11.4,9.8C5.4,9.8,0.9,5.9,0,0
							 M31.7-6.3H0.1c1.1-5.9,6-9.7,13.1-9.7c4.5,0,8.1,1.4,10.9,4.4l5.1-5.8C25.6-21.7,19.9-24,13-24C-0.5-24-9.3-15.3-9.3-3.3
							s8.8,20.6,20.8,20.6c11.8,0,20.4-8.2,20.4-20.8C31.8-4.2,31.8-5.4,31.7-6.3"/>
					</g>
					<g id="g110" transform="translate(812.835,141.1369)">
						<path id="path112" inkscape:connector-curvature="0" class="st0" d="M0,0v-23.1h-9.4v21.9c0,7.2-3.3,10.6-9.1,10.6
							c-6.2,0-10.5-4-10.5-12v-20.5h-9.4v21.9c0,7.2-3.3,10.6-9.1,10.6c-6.2,0-10.5-4-10.5-12v-20.5h-9.4v40.3h9v-5.1
							c3,3.6,7.7,5.6,13.2,5.6c5.9,0,10.8-2.2,13.6-6.7c3.2,4.2,8.7,6.7,15.1,6.7C-6.8,17.7,0,12.2,0,0"/>
					</g>
					<g id="g114" transform="translate(861.8896,158.3439)">
						<path id="path116" inkscape:connector-curvature="0" class="st0" d="M0,0l-18.9-43.5c-3.7-9.1-8.8-11.9-15.5-11.9
							c-4,0-8.2,1.4-10.8,3.7l3.8,6.9c1.8-1.7,4.4-2.8,6.9-2.8c3.3,0,5.3,1.6,7.1,5.6l0.7,1.6L-44.3,0h9.8l12.7-29.8L-9.1,0H0z"/>
					</g>
					<g id="g118" transform="translate(297.0381,55.0949)">
						<path id="path120" inkscape:connector-curvature="0" class="st0" d="M0,0c0,7.7-5.1,12.6-12,12.6c-6.8,0-11.9-4.9-11.9-12.6
							s5.1-12.6,11.9-12.6C-5.1-12.6,0-7.7,0,0 M-33.4,0c0,12.1,9.1,20.6,21.4,20.6C0.5,20.6,9.5,12.1,9.5,0S0.5-20.7-12-20.7
							C-24.4-20.7-33.4-12.1-33.4,0"/>
					</g>
					<g id="g122" transform="translate(326.022,77.3576)">
						<path id="path124" inkscape:connector-curvature="0" class="st0" d="M0,0v-2.4h11.1V-10H0.3v-32.5h-9.4V-10h-6.6v7.5h6.6v2.6
							c0,8.5,5.1,14,14.4,14c3.2,0,6.4-0.7,8.5-2.2l-2.6-7.1C9.7,5.8,7.9,6.5,6,6.5C2,6.5,0,4.3,0,0"/>
					</g>
					<g id="g126" transform="translate(404.812,43.1711)">
						<path id="path128" inkscape:connector-curvature="0" class="st0" d="M0,0v-8.2h-39.6v52.8H-1v-8.2h-28.8V22.6h25.5v-8.1h-25.5
							V0H0z"/>
					</g>
					<g id="g130" transform="translate(454.5508,58.0383)">
						<path id="path132" inkscape:connector-curvature="0" class="st0" d="M0,0v-23.1h-9.4v21.9C-9.4,6-13,9.4-19,9.4
							c-6.7,0-11.2-4.1-11.2-12.2v-20.4h-9.4v40.3h9V12c3.1,3.7,8,5.7,13.9,5.7C-7.2,17.7,0,12.2,0,0"/>
					</g>
					<g id="g134" transform="translate(497.2695,56.3029)">
						<path id="path136" inkscape:connector-curvature="0" class="st0" d="M0,0c0,6.8-5.1,11.4-12.2,11.4c-7.2,0-12.3-4.6-12.3-11.4
							c0-6.9,5.1-11.5,12.3-11.5C-5.1-11.5,0-6.9,0,0 M9.3,18.9v-34.2c0-14.6-7.6-21.3-21.7-21.3c-7.5,0-15,2-19.6,5.7l4.2,7.1
							c3.5-2.9,9.3-4.8,14.9-4.8c8.9,0,12.8,4.1,12.8,12.2v2.1c-3.3-3.6-8.1-5.4-13.5-5.4C-25.2-19.5-34-11.7-34,0
							s8.8,19.4,20.4,19.4c5.7,0,10.6-1.8,14-5.8V19h8.9V18.9z"/>
					</g>
					<path id="path138" inkscape:connector-curvature="0" class="st0" d="M518.9,75.2h9.4V34.9h-9.4V75.2z M517.7,87.5
						c0,3.2,2.6,5.7,6,5.7c3.5,0,6-2.3,6-5.4c0-3.3-2.5-5.9-6-5.9C520.2,81.9,517.7,84.4,517.7,87.5"/>
					<g id="g140" transform="translate(580.4404,58.0383)">
						<path id="path142" inkscape:connector-curvature="0" class="st0" d="M0,0v-23.1h-9.4v21.9C-9.4,6-13,9.4-19,9.4
							c-6.7,0-11.2-4.1-11.2-12.2v-20.4h-9.4v40.3h9V12c3.1,3.7,8,5.7,13.9,5.7C-7.2,17.7,0,12.2,0,0"/>
					</g>
					<g id="g144" transform="translate(598.4814,58.34)">
						<path id="path146" inkscape:connector-curvature="0" class="st0" d="M0,0h22.9c-0.8,5.8-5.2,9.8-11.4,9.8C5.4,9.8,0.9,5.9,0,0
							 M31.7-6.3H0.1c1.1-5.9,6-9.7,13.1-9.7c4.5,0,8.1,1.4,10.9,4.4l5.1-5.8C25.6-21.7,19.9-24,13-24C-0.5-24-9.3-15.3-9.3-3.3
							s8.8,20.6,20.8,20.6c11.8,0,20.4-8.2,20.4-20.8C31.8-4.2,31.8-5.4,31.7-6.3"/>
					</g>
					<g id="g148" transform="translate(645.4258,58.34)">
						<path id="path150" inkscape:connector-curvature="0" class="st0" d="M0,0h22.9c-0.8,5.8-5.2,9.8-11.4,9.8C5.4,9.8,0.9,5.9,0,0
							 M31.7-6.3H0.1c1.1-5.9,6-9.7,13.1-9.7c4.5,0,8.1,1.4,10.9,4.4l5.1-5.8C25.6-21.7,19.9-24,13-24C-0.5-24-9.3-15.3-9.3-3.3
							s8.8,20.6,20.8,20.6c11.8,0,20.4-8.2,20.4-20.8C31.8-4.2,31.8-5.4,31.7-6.3"/>
					</g>
					<g id="g152" transform="translate(709.6523,75.6975)">
						<path id="path154" inkscape:connector-curvature="0" class="st0" d="M0,0v-9c-0.8,0.1-1.5,0.2-2.2,0.2
							c-7.2,0-11.7-4.2-11.7-12.5v-19.5h-9.4v40.3h9v-5.9C-11.6-2.1-6.7,0,0,0"/>
					</g>
					<path id="path156" inkscape:connector-curvature="0" class="st0" d="M718,75.2h9.4V34.9H718V75.2z M716.8,87.5
						c0,3.2,2.6,5.7,6,5.7s6-2.3,6-5.4c0-3.3-2.5-5.9-6-5.9C719.3,81.9,716.8,84.4,716.8,87.5"/>
					<g id="g158" transform="translate(779.541,58.0383)">
						<path id="path160" inkscape:connector-curvature="0" class="st0" d="M0,0v-23.1h-9.4v21.9C-9.4,6-13,9.4-19,9.4
							c-6.7,0-11.2-4.1-11.2-12.2v-20.4h-9.4v40.3h9V12c3.1,3.7,8,5.7,13.9,5.7C-7.2,17.7,0,12.2,0,0"/>
					</g>
					<g id="g162" transform="translate(823.0234,56.3029)">
						<path id="path164" inkscape:connector-curvature="0" class="st0" d="M0,0c0,6.8-5.1,11.4-12.2,11.4c-7.2,0-12.3-4.6-12.3-11.4
							c0-6.9,5.1-11.5,12.3-11.5C-5.1-11.5,0-6.9,0,0 M9.3,18.9v-34.2c0-14.6-7.6-21.3-21.7-21.3c-7.5,0-15,2-19.6,5.7l4.2,7.1
							c3.5-2.9,9.3-4.8,14.9-4.8c8.9,0,12.8,4.1,12.8,12.2v2.1c-3.3-3.6-8.1-5.4-13.5-5.4C-25.2-19.5-34-11.7-34,0
							s8.8,19.4,20.4,19.4c5.7,0,10.6-1.8,14-5.8V19h8.9V18.9z"/>
					</g>
				</g>
			</g>
		</g>
	</g>
</g>
</svg>
